<?xml version="1.0" standalone="no"?><svg xmlns="http://www.w3.org/2000/svg" viewBox="0 0 1440 320"><path fill="#0099ff" fill-opacity="1" d="M0,288L7.7,261.3C15.5,235,31,181,46,186.7C61.9,192,77,256,93,256C108.4,256,124,192,139,181.3C154.8,171,170,213,186,234.7C201.3,256,217,256,232,245.3C247.7,235,263,213,279,170.7C294.2,128,310,64,325,58.7C340.6,53,356,107,372,138.7C387.1,171,403,181,418,192C433.5,203,449,213,465,202.7C480,192,495,160,511,160C526.5,160,542,192,557,224C572.9,256,588,288,604,250.7C619.4,213,635,107,650,69.3C665.8,32,681,64,697,85.3C712.3,107,728,117,743,138.7C758.7,160,774,192,790,192C805.2,192,821,160,836,138.7C851.6,117,867,107,883,112C898.1,117,914,139,929,144C944.5,149,960,139,975,138.7C991,139,1006,149,1022,170.7C1037.4,192,1053,224,1068,224C1083.9,224,1099,192,1115,160C1130.3,128,1146,96,1161,101.3C1176.8,107,1192,149,1208,170.7C1223.2,192,1239,192,1254,165.3C1269.7,139,1285,85,1301,69.3C1316.1,53,1332,75,1347,80C1362.6,85,1378,75,1394,80C1409,85,1425,107,1432,117.3L1440,128L1440,320L1432.3,320C1424.5,320,1409,320,1394,320C1378.1,320,1363,320,1347,320C1331.6,320,1316,320,1301,320C1285.2,320,1270,320,1254,320C1238.7,320,1223,320,1208,320C1192.3,320,1177,320,1161,320C1145.8,320,1130,320,1115,320C1099.4,320,1084,320,1068,320C1052.9,320,1037,320,1022,320C1006.5,320,991,320,975,320C960,320,945,320,929,320C913.5,320,898,320,883,320C867.1,320,852,320,836,320C820.6,320,805,320,790,320C774.2,320,759,320,743,320C727.7,320,712,320,697,320C681.3,320,666,320,650,320C634.8,320,619,320,604,320C588.4,320,573,320,557,320C541.9,320,526,320,511,320C495.5,320,480,320,465,320C449,320,434,320,418,320C402.6,320,387,320,372,320C356.1,320,341,320,325,320C309.7,320,294,320,279,320C263.2,320,248,320,232,320C216.8,320,201,320,186,320C170.3,320,155,320,139,320C123.9,320,108,320,93,320C77.4,320,62,320,46,320C31,320,15,320,8,320L0,320Z"></path></svg>